<svg xmlns="http://www.w3.org/2000/svg" version="1.1" width="48px" height="48px" viewBox="0 0 381 381" style="shape-rendering:geometricPrecision; text-rendering:geometricPrecision; image-rendering:optimizeQuality; fill-rule:evenodd; clip-rule:evenodd" xmlns:xlink="http://www.w3.org/1999/xlink">
    <g>
        <path style="opacity:0.936" fill="#334155" d="M 380.5,300.5 C 380.5,301.5 380.5,302.5 380.5,303.5C 253.506,315.566 126.506,327.566 -0.5,339.5C -0.5,338.833 -0.5,338.167 -0.5,337.5C 58.2257,239.062 116.726,140.395 175,41.5C 175.689,40.6433 176.522,39.9767 177.5,39.5C 244.934,126.711 312.6,213.711 380.5,300.5 Z M 188.5,82.5 C 238.147,146.431 287.813,210.431 337.5,274.5C 337.333,274.833 337.167,275.167 337,275.5C 297.073,259.137 256.906,243.47 216.5,228.5C 215.675,233.976 213.675,238.976 210.5,243.5C 210.833,243.833 211.167,244.167 211.5,244.5C 250.09,259.465 288.423,274.965 326.5,291C 234.517,300.198 142.517,308.865 50.5,317C 85.2561,294.873 119.756,272.373 154,249.5C 151.246,244.682 148.413,239.682 145.5,234.5C 110.851,257.039 76.1839,279.206 41.5,301C 84.6667,228.5 127.833,156 171,83.5C 171.5,117.832 171.667,152.165 171.5,186.5C 177.18,185.353 182.847,185.353 188.5,186.5C 188.5,151.833 188.5,117.167 188.5,82.5 Z" />
    </g>
    <g>
        <path style="opacity:0.974" fill="#334155" d="M 179.5,192.5 C 202.078,195.338 211.911,208.004 209,230.5C 202.822,247.009 190.989,253.842 173.5,251C 155.956,245.092 148.789,232.926 152,214.5C 156.655,201.329 165.822,193.995 179.5,192.5 Z" />
    </g>
</svg>