<svg height="48" viewBox="0 0 426 124" xmlns="http://www.w3.org/2000/svg" fill-rule="evenodd" clip-rule="evenodd" stroke-linejoin="round" stroke-miterlimit="1.414">
<path d="M8.36 99.88h-.01C3.769 99.88 0 96.111 0 91.53V8.351C0 3.77 3.769.001 8.35.001c1.295 0 2.572.301 3.73.879l47.78 23.8a8.384 8.384 0 0 1 4.649 7.5c0 4.594-3.78 8.374-8.374 8.374a8.376 8.376 0 0 1-3.725-.874l-35.7-17.82v69.67c0 4.581-3.769 8.35-8.35 8.35z" fill="#eb5e60" fill-rule="nonzero"/>
<path d="M103.91 99.88c-4.582 0-8.355-3.768-8.36-8.35V21.86L59.86 39.64a8.376 8.376 0 0 1-3.725.874c-4.594 0-8.374-3.78-8.374-8.374a8.384 8.384 0 0 1 4.649-7.5L100.19.88a8.352 8.352 0 0 1 3.73-.879c4.581 0 8.35 3.769 8.35 8.35V91.53c0 4.581-3.769 8.35-8.35 8.35h-.01z" fill="#fab300" fill-rule="nonzero"/>
<path d="M56.14 123.16c-4.586 0-8.36-3.774-8.36-8.36V45.13L12.09 62.91a8.365 8.365 0 0 1-4.295 1.188c-4.587 0-8.36-3.774-8.36-8.36A8.373 8.373 0 0 1 4.63 48l47.78-23.8a8.364 8.364 0 0 1 3.72-.873c4.584 0 8.356 3.769 8.36 8.353v83.13c0 4.581-3.769 8.35-8.35 8.35z" fill="#334155" fill-rule="nonzero"/>
<path d="M174.29 5.24c10.06 0 15 7.88 14.91 15.4-.09 7.52-5.09 14.79-14.91 14.79h-6.79V48h-10.37V5.24h17.16zm0 20.43c3.21 0 4.79-2.61 4.79-5.09s-1.58-5.28-4.79-5.28h-6.79v10.37h6.79zM214.06 38h17.58v10h-28V5.24h28v10h-17.58v5.94h17.15v10.07h-17.15V38zm54.49-33.07c.156-.003.312-.005.468-.005 11.992 0 21.86 9.868 21.86 21.86 0 11.992-9.868 21.86-21.86 21.86-.156 0-.312-.002-.468-.005-.13.002-.261.004-.391.004-11.822 0-21.55-9.728-21.55-21.55l.001-.214-.001-.241c0-11.91 9.8-21.71 21.71-21.71l.231.001zm-.24 33.89c5.88.06 11.82-3.94 11.82-11.94s-5.94-12.12-11.82-12c-5.88.12-11.4 4.06-11.4 12s5.64 11.88 11.4 11.94zm55.53-33.58c10.06 0 15 7.88 14.91 15.4-.09 7.52-5.09 14.79-14.91 14.79h-6.79V48h-10.37V5.24h17.16zm0 20.43c3.21 0 4.79-2.61 4.79-5.09s-1.58-5.28-4.79-5.28h-6.79v10.37h6.79zM364.09 38h17.82v10h-28.19V5.6h10.37V38zm43.53 0h17.58v10h-28V5.24h27.95v10h-17.53v5.94h17.15v10.07h-17.15V38zM167.5 107.82h-10.37V65.39h8.25l11.15 16.42 11.16-16.42h8.12v42.43h-10.3v-21l-6.13 9h-5.76l-6.12-9.16v21.16zm69.11-6.24h-14.49l-2.36 6.24h-11.1l17-42.92H233l17.64 42.92H239l-2.39-6.24zM226.24 91l-.36 1h7l-.24-.73-3.25-9.27-3.15 9zm71.53-25l-15 20.49 16.43 20.8v.54h-12.88l-12.61-16.44v16.43h-10.37V65.39h10.37v16.49l11.76-16.49h12.3V66zM324 97.82h17.6v10h-28V65h28v10H324v6h17.16v10H324v6.82z" fill="#334155" fill-rule="nonzero"/>
</svg>